# xmcd
#
# Track frame offsets:
# 183
# 14400
# 29293
# 43648
# 55700
# 70230
# 83278
# 96968
# 110343
# 123585
# 138365
# 153133
# 167370
# 181820
# 194718
# 207080
# 219970
# 234730
# 248005
# 262155
# 275833
# 289423
#
# Disc length: 4015 seconds
#
#
# Revision: 1
# Processed by: cddbd v1.5.2PL0 Copyright (c) Steve Scherf et al.
# Submitted via: FreeRIP 2.40 
#
DISCID=390fad16
DTITLE=Andy Kirk - The Chronological Andy Kirk 1938
DYEAR=1992
DGENRE=Jazz
TTITLE0=Bless You My Dear
TTITLE1=How Can We Be Wrong?
TTITLE2=Mess-A Stomp
TTITLE3=Toadie Toddle
TTITLE4=I Won't Tell A Soul (I Love You)
TTITLE5=What Would People Say
TTITLE6=How Much Do You Mean To Me?
TTITLE7=Jump Jack Jump
TTITLE8=Breeze (Blow My Baby Back To Me)
TTITLE9=Ghost Of Love
TTITLE10=What A Life (Trying To Live Without You)
TTITLE11=Sittin' Around And Dreamin'
TTITLE12=What's Your Story, Morning Glory?
TTITLE13=Honey
TTITLE14=September In The Rain
TTITLE15=Clouds
TTITLE16=Julius Caesar
TTITLE17=Dunkin' A Doughnut
TTITLE18=Goodbye
TTITLE19=Mary's Idea
TTITLE20=But It Didn't Mean A Thing
TTITLE21=(I Don't Believe It But) Say It Again
EXTD=Andy Kirk And His Twelve Clouds Of Joy
EXTT0=
EXTT1=
EXTT2=
EXTT3=
EXTT4=
EXTT5=
EXTT6=
EXTT7=
EXTT8=
EXTT9=
EXTT10=
EXTT11=
EXTT12=
EXTT13=
EXTT14=
EXTT15=
EXTT16=
EXTT17=
EXTT18=
EXTT19=
EXTT20=
EXTT21=
PLAYORDER=
